<?xml version="1.0" encoding="UTF-8" standalone="no"?>
<!-- Created with Inkscape (http://www.inkscape.org/) -->

<svg
   width="249.98599"
   height="101.253"
   viewBox="0 0 249.98599 101.253"
   version="1.1"
   id="svg5"
   inkscape:version="1.2.1 (9c6d41e410, 2022-07-14, custom)"
   sodipodi:docname="default.svg"
   xmlns:inkscape="http://www.inkscape.org/namespaces/inkscape"
   xmlns:sodipodi="http://sodipodi.sourceforge.net/DTD/sodipodi-0.dtd"
   xmlns:xlink="http://www.w3.org/1999/xlink"
   xmlns="http://www.w3.org/2000/svg"
   xmlns:svg="http://www.w3.org/2000/svg">
  <sodipodi:namedview
     id="namedview7"
     pagecolor="#ffffff"
     bordercolor="#000000"
     borderopacity="0.25"
     inkscape:showpageshadow="2"
     inkscape:pageopacity="0.0"
     inkscape:pagecheckerboard="0"
     inkscape:deskcolor="#d1d1d1"
     inkscape:document-units="px"
     showgrid="false"
     inkscape:zoom="2.3312427"
     inkscape:cx="92.868924"
     inkscape:cy="31.742727"
     inkscape:window-width="1366"
     inkscape:window-height="704"
     inkscape:window-x="0"
     inkscape:window-y="0"
     inkscape:window-maximized="1"
     inkscape:current-layer="layer1" />
  <defs
     id="defs2">
    <rect
       x="0"
       y="0"
       width="171.77301"
       height="38.754459"
       id="rect700" />
    <rect
       x="0"
       y="32.696682"
       width="249.42332"
       height="67.994136"
       id="rect688" />
    <rect
       x="-79.071964"
       y="25.847937"
       width="239.19276"
       height="62.858394"
       id="rect480" />
    <linearGradient
       inkscape:collect="always"
       id="linearGradient3679">
      <stop
         style="stop-color:#700056;stop-opacity:0.39821067;"
         offset="0"
         id="stop3675" />
      <stop
         style="stop-color:#191919;stop-opacity:0;"
         offset="1"
         id="stop3677" />
    </linearGradient>
    <linearGradient
       inkscape:collect="always"
       id="linearGradient3650">
      <stop
         style="stop-color:#bb0000;stop-opacity:0.15927418;"
         offset="0"
         id="stop3646" />
      <stop
         style="stop-color:#080a0b;stop-opacity:0;"
         offset="1"
         id="stop3648" />
    </linearGradient>
    <linearGradient
       inkscape:collect="always"
       id="linearGradient3636">
      <stop
         style="stop-color:#0075d6;stop-opacity:0.17121977;"
         offset="0"
         id="stop3632" />
      <stop
         style="stop-color:#000000;stop-opacity:0;"
         offset="1"
         id="stop3634" />
    </linearGradient>
    <radialGradient
       inkscape:collect="always"
       xlink:href="#linearGradient3636"
       id="radialGradient3640"
       cx="186.05154"
       cy="64.071892"
       fx="186.05154"
       fy="64.071892"
       r="26.418482"
       gradientUnits="userSpaceOnUse"
       gradientTransform="matrix(2,0,0,2,-240.34953,-97.074563)" />
    <radialGradient
       inkscape:collect="always"
       xlink:href="#linearGradient3679"
       id="radialGradient3644"
       gradientUnits="userSpaceOnUse"
       gradientTransform="matrix(3.3973405,0,0,3.1366258,-583.41341,-133.87767)"
       cx="186.05154"
       cy="64.071892"
       fx="186.05154"
       fy="64.071892"
       r="26.418482" />
    <radialGradient
       inkscape:collect="always"
       xlink:href="#linearGradient3650"
       id="radialGradient3673"
       gradientUnits="userSpaceOnUse"
       gradientTransform="matrix(3.3973405,0,0,3.1366258,-507.85997,-107.54)"
       cx="186.05154"
       cy="64.071892"
       fx="186.05154"
       fy="64.071892"
       r="26.418482" />
    <radialGradient
       inkscape:collect="always"
       xlink:href="#linearGradient3650"
       id="radialGradient371"
       gradientUnits="userSpaceOnUse"
       gradientTransform="matrix(3.3973405,0,0,3.1366258,-430.84398,-150.34304)"
       cx="186.05154"
       cy="64.071892"
       fx="186.05154"
       fy="64.071892"
       r="26.418482" />
  </defs>
  <g
     inkscape:label="Layer 1"
     inkscape:groupmode="layer"
     id="layer1">
    <rect
       style="fill:#161b22;fill-opacity:1;stroke:#30363d;stroke-width:1.12521;stroke-dasharray:none;stroke-opacity:1"
       id="rect111"
       width="248.86072"
       height="100.12821"
       x="0.56260502"
       y="0.56260502"
       ry="6.9183316" />
    <circle
       style="fill:url(#radialGradient3640);fill-opacity:1;stroke:none;stroke-width:2;stroke-dasharray:none;stroke-opacity:1"
       id="path3125"
       cx="131.75354"
       cy="31.06922"
       r="52.836964" />
    <ellipse
       style="fill:url(#radialGradient3644);fill-opacity:1;stroke:none;stroke-width:3.26437;stroke-dasharray:none;stroke-opacity:1"
       id="circle3642"
       cx="48.667015"
       cy="67.091866"
       rx="89.752586"
       ry="82.864891" />
    <ellipse
       style="fill:url(#radialGradient3673);fill-opacity:1;stroke:none;stroke-width:3.26437;stroke-dasharray:none;stroke-opacity:1"
       id="ellipse3671"
       cx="124.22046"
       cy="93.429543"
       rx="89.752586"
       ry="82.864891" />
    <text
       xml:space="preserve"
       style="font-style:normal;font-variant:normal;font-weight:normal;font-stretch:normal;font-family:'Nimbus Mono PS'font-variant-ligatures:normal;font-variant-caps:normal;font-variant-numeric:normal;font-variant-east-asian:normal;baseline-shift:baseline;fill:#c9d1d9"
       x="197.66588"
       y="89.74408"
       id="text360"><tspan
         sodipodi:role="line"
         id="tspan358"
         x="197.66588"
         y="89.74408" /></text>
    <g
       aria-label="Views Counter"
       id="text395"
       style="font-size:19.5401px;font-family:Iosevka;-inkscape-font-specification:'Iosevka, Normal';fill:#c9d1d9;stroke-width:0.350066">
      <path
         d="M 16.372136,24.520359 13.22618,10.158385 h 1.563208 l 1.95401,9.57465 q 0.136781,0.625283 0.254022,1.250566 0.13678,0.625283 0.254021,1.250566 0.117241,-0.625283 0.234481,-1.250566 0.136781,-0.625283 0.273562,-1.250566 l 1.95401,-9.57465 h 1.563208 l -3.145956,14.361974 z"
         id="path1018" />
      <path
         d="m 23.601974,24.520359 v -1.367807 h 2.794234 v -7.620639 h -2.520673 v -1.367807 h 4.044801 v 8.988446 h 2.520673 v 1.367807 z m 3.419517,-12.075782 q -0.254021,0 -0.488502,-0.05862 -0.234482,-0.07816 -0.410343,-0.254021 -0.17586,-0.175861 -0.254021,-0.410343 -0.05862,-0.234481 -0.05862,-0.488502 0,-0.254021 0.05862,-0.488503 0.07816,-0.234481 0.254021,-0.410342 0.175861,-0.175861 0.410343,-0.254021 0.234481,-0.07816 0.488502,-0.07816 0.254021,0 0.488503,0.07816 0.234481,0.07816 0.410342,0.254021 0.175861,0.175861 0.254021,0.410342 0.07816,0.234482 0.07816,0.488503 0,0.254021 -0.07816,0.488502 -0.07816,0.234482 -0.254021,0.410343 -0.175861,0.17586 -0.410342,0.254021 -0.234482,0.05862 -0.488503,0.05862 z"
         id="path1020" />
      <path
         d="m 36.830621,24.67668 q -0.547123,0 -1.074705,-0.0977 -0.508043,-0.0977 -0.977005,-0.351721 -0.468963,-0.273562 -0.820684,-0.664364 -0.351722,-0.410342 -0.586203,-0.879304 -0.214942,-0.488503 -0.293102,-1.016086 -0.07816,-0.527582 -0.07816,-1.055165 v -2.540213 q 0,-0.527583 0.07816,-1.055165 0.07816,-0.527583 0.293102,-0.996546 0.214941,-0.488502 0.566662,-0.879304 0.371262,-0.410342 0.820685,-0.664363 0.449422,-0.254022 0.977005,-0.351722 0.527582,-0.117241 1.055165,-0.117241 0.527583,0 1.055166,0.117241 0.527582,0.0977 0.977005,0.351722 0.449422,0.254021 0.801144,0.664363 0.371262,0.390802 0.586203,0.879304 0.214941,0.468963 0.293101,0.996546 0.07816,0.527582 0.07816,1.055165 v 1.95401 h -6.057432 v 0.586203 q 0,0.332182 0.03908,0.664363 0.03908,0.332182 0.15632,0.644824 0.136781,0.312641 0.332182,0.586203 0.214941,0.273561 0.488503,0.468962 0.273561,0.175861 0.605743,0.254021 0.332181,0.07816 0.683903,0.07816 0.371262,0 0.742524,-0.07816 0.390802,-0.07816 0.703444,-0.273561 0.332181,-0.214941 0.527582,-0.547123 0.195401,-0.351722 0.214942,-0.722983 h 1.524127 q -0.01954,0.429882 -0.175861,0.859764 -0.13678,0.429882 -0.410342,0.801144 -0.254021,0.351722 -0.625283,0.625283 -0.351722,0.254022 -0.762064,0.429882 -0.410342,0.156321 -0.859764,0.214942 -0.449422,0.05862 -0.879305,0.05862 z m -2.305732,-6.018351 h 4.533304 v -0.586203 q 0,-0.332182 -0.03908,-0.664363 -0.03908,-0.332182 -0.156321,-0.644824 -0.117241,-0.312641 -0.332182,-0.586203 -0.195401,-0.273561 -0.468962,-0.449422 -0.273562,-0.195401 -0.605743,-0.273561 -0.332182,-0.07816 -0.664364,-0.07816 -0.332182,0 -0.664363,0.07816 -0.332182,0.07816 -0.605743,0.273561 -0.273562,0.175861 -0.488503,0.449422 -0.195401,0.273562 -0.312642,0.586203 -0.11724,0.312642 -0.15632,0.644824 -0.03908,0.332181 -0.03908,0.664363 z"
         id="path1022" />
      <path
         d="M 43.962758,24.520359 42.301849,14.164106 h 1.543668 l 0.918385,8.851665 1.035625,-5.95973 h 1.524128 l 1.035625,5.95973 0.918385,-8.851665 h 1.543668 l -1.660909,10.356253 h -1.504587 l -1.094246,-5.549388 -1.094245,5.549388 z"
         id="path1024" />
      <path
         d="m 56.312101,24.67668 q -0.449422,0 -0.879304,-0.05862 -0.429883,-0.03908 -0.840225,-0.175861 -0.410342,-0.156321 -0.781604,-0.410342 -0.351722,-0.254022 -0.625283,-0.586203 -0.254021,-0.351722 -0.390802,-0.781604 -0.136781,-0.429883 -0.136781,-0.859765 0,0 0,0 0,-0.01954 0,-0.01954 h 1.524128 q 0,0 0,0 0,0 0,0 0,0.371262 0.195401,0.703444 0.195401,0.312641 0.508043,0.508042 0.332181,0.175861 0.683903,0.254022 0.371262,0.05862 0.742524,0.05862 0.371262,0 0.722984,-0.05862 0.371262,-0.07816 0.683903,-0.254022 0.332182,-0.195401 0.527583,-0.527582 0.214941,-0.332182 0.214941,-0.703444 0,-0.332182 -0.195401,-0.625283 -0.175861,-0.293102 -0.468962,-0.468963 -0.273562,-0.195401 -0.605743,-0.273561 -0.312642,-0.0977 -0.644824,-0.195401 -0.312641,-0.0977 -0.644823,-0.195401 -0.312642,-0.0977 -0.625283,-0.214941 -0.312642,-0.117241 -0.625283,-0.254021 -0.293102,-0.156321 -0.566663,-0.351722 -0.273562,-0.195401 -0.508043,-0.429882 -0.234481,-0.254022 -0.410342,-0.547123 -0.156321,-0.293102 -0.234481,-0.625283 -0.07816,-0.332182 -0.07816,-0.664364 0,-0.429882 0.117241,-0.840224 0.136781,-0.410342 0.371262,-0.762064 0.234481,-0.371262 0.586203,-0.625283 0.351722,-0.254022 0.742524,-0.410342 0.410342,-0.156321 0.820684,-0.214942 0.429882,-0.05862 0.859764,-0.05862 0.429882,0 0.840225,0.05862 0.429882,0.05862 0.820684,0.214942 0.410342,0.13678 0.742524,0.390802 0.351721,0.234481 0.586203,0.586203 0.254021,0.351721 0.371262,0.762063 0.13678,0.410343 0.13678,0.820685 0,0 0,0.01954 0,0 0,0 h -1.524128 q 0,0 0,0 0,0 0,0 0,-0.351722 -0.17586,-0.664364 -0.175861,-0.312641 -0.468963,-0.488502 -0.293101,-0.195401 -0.644823,-0.254021 -0.332182,-0.07816 -0.683904,-0.07816 -0.351722,0 -0.703443,0.07816 -0.351722,0.05862 -0.644824,0.254021 -0.293101,0.195401 -0.468962,0.527583 -0.175861,0.312641 -0.175861,0.664363 0,0.351722 0.175861,0.644823 0.195401,0.293102 0.468962,0.488503 0.293102,0.175861 0.605743,0.273561 0.332182,0.07816 0.644824,0.175861 0.332181,0.0977 0.644823,0.195401 0.332182,0.0977 0.644823,0.214941 0.312642,0.117241 0.605744,0.273562 0.312641,0.13678 0.586203,0.332181 0.273561,0.195401 0.488502,0.449423 0.234481,0.234481 0.390802,0.527582 0.175861,0.293102 0.254021,0.625284 0.0977,0.312641 0.0977,0.664363 0,0.429882 -0.136781,0.859764 -0.136781,0.429883 -0.390802,0.781604 -0.254021,0.351722 -0.625283,0.605743 -0.371262,0.254022 -0.781604,0.410343 -0.410342,0.13678 -0.859764,0.195401 -0.429883,0.05862 -0.859765,0.05862 z"
         id="path1026" />
      <path
         d="m 75.813121,24.67668 q -0.508043,0 -1.035625,-0.0977 -0.508043,-0.0977 -0.957465,-0.351721 -0.449423,-0.254022 -0.801144,-0.644824 -0.351722,-0.390802 -0.566663,-0.859764 -0.214941,-0.468963 -0.293102,-0.977005 -0.07816,-0.527583 -0.07816,-1.035625 v -6.741335 q 0,-0.508043 0.07816,-1.016085 0.07816,-0.527583 0.293102,-0.996545 0.214941,-0.468963 0.566663,-0.859765 0.351721,-0.390802 0.801144,-0.644823 0.449422,-0.254021 0.957465,-0.351722 0.527582,-0.0977 1.035625,-0.0977 0.488502,0 0.957465,0.07816 0.488502,0.07816 0.918385,0.293102 0.449422,0.214941 0.801144,0.547122 0.371262,0.332182 0.586203,0.762064 0.234481,0.429882 0.351722,0.898845 0.11724,0.468962 0.11724,0.957465 0,0.01954 0,0.03908 0,0 0,0.01954 h -1.524128 q 0,0 0,0 0,-0.01954 0,-0.03908 0,-0.429882 -0.15632,-0.859765 -0.136781,-0.429882 -0.449423,-0.742523 -0.293101,-0.312642 -0.722984,-0.449423 -0.429882,-0.13678 -0.879304,-0.13678 -0.488503,0 -0.957465,0.195401 -0.449422,0.175861 -0.742524,0.566663 -0.293101,0.390802 -0.410342,0.879304 -0.0977,0.468962 -0.0977,0.957465 v 6.741335 q 0,0.488502 0.0977,0.977005 0.117241,0.468962 0.410342,0.859764 0.293102,0.390802 0.742524,0.586203 0.468962,0.175861 0.957465,0.175861 0.449422,0 0.879304,-0.136781 0.429883,-0.136781 0.722984,-0.449422 0.312642,-0.312642 0.449423,-0.742524 0.15632,-0.429882 0.15632,-0.859764 0,-0.01954 0,-0.01954 0,-0.01954 0,-0.01954 h 1.524128 q 0,0.01954 0,0.03908 0,0 0,0.01954 0,0.488502 -0.11724,0.957465 -0.117241,0.468962 -0.351722,0.898844 -0.214941,0.429882 -0.586203,0.762064 -0.351722,0.332182 -0.801144,0.547123 -0.429883,0.214941 -0.918385,0.293101 -0.468963,0.07816 -0.957465,0.07816 z"
         id="path1028" />
      <path
         d="m 85.641791,24.67668 q -0.527582,0 -1.055165,-0.117241 -0.527583,-0.0977 -0.977005,-0.351722 -0.449422,-0.254021 -0.820684,-0.644823 -0.351722,-0.410342 -0.566663,-0.879304 -0.214941,-0.488503 -0.293102,-1.016086 -0.07816,-0.527582 -0.07816,-1.055165 v -2.540213 q 0,-0.527583 0.07816,-1.055165 0.07816,-0.527583 0.293102,-0.996546 0.214941,-0.488502 0.566663,-0.879304 0.371262,-0.410342 0.820684,-0.664363 0.468962,-0.254022 0.977005,-0.390802 0.527583,-0.136781 1.055165,-0.136781 0.527583,0 1.035626,0.136781 0.527582,0.13678 0.977005,0.390802 0.468962,0.254021 0.820684,0.664363 0.371262,0.390802 0.586203,0.879304 0.214941,0.468963 0.293101,0.996546 0.07816,0.527582 0.07816,1.055165 v 2.540213 q 0,0.527583 -0.07816,1.055165 -0.07816,0.527583 -0.293101,1.016086 -0.214941,0.468962 -0.586203,0.879304 -0.351722,0.390802 -0.801144,0.644823 -0.449423,0.254022 -0.977005,0.351722 -0.527583,0.117241 -1.055166,0.117241 z m 0,-1.367807 q 0.332182,0 0.664364,-0.07816 0.332181,-0.07816 0.605743,-0.254021 0.273561,-0.195401 0.468962,-0.468962 0.214941,-0.273562 0.332182,-0.586203 0.117241,-0.312642 0.156321,-0.644824 0.03908,-0.332181 0.03908,-0.664363 v -2.540213 q 0,-0.332182 -0.03908,-0.664363 -0.03908,-0.332182 -0.175861,-0.644824 -0.117241,-0.332181 -0.312642,-0.605743 -0.195401,-0.273561 -0.488502,-0.449422 -0.273562,-0.175861 -0.605743,-0.254021 -0.332182,-0.07816 -0.683904,-0.07816 -0.332182,0 -0.664363,0.0977 -0.312642,0.07816 -0.586203,0.273561 -0.273562,0.175861 -0.468963,0.449422 -0.195401,0.273562 -0.312641,0.586203 -0.117241,0.293102 -0.156321,0.625284 -0.03908,0.332181 -0.03908,0.664363 v 2.540213 q 0,0.332182 0.03908,0.664363 0.03908,0.332182 0.156321,0.644824 0.11724,0.312641 0.312641,0.586203 0.214941,0.273561 0.488503,0.468962 0.273561,0.175861 0.605743,0.254021 0.332182,0.07816 0.664363,0.07816 z"
         id="path1030" />
      <path
         d="m 94.825638,24.67668 q -0.488502,0 -0.957465,-0.136781 -0.468962,-0.136781 -0.840224,-0.429882 -0.351722,-0.312642 -0.605743,-0.722984 -0.254021,-0.429882 -0.410342,-0.879304 -0.136781,-0.468963 -0.195401,-0.937925 -0.03908,-0.488503 -0.03908,-0.957465 v -6.448233 h 1.524128 v 6.448233 q 0,0.332182 0.03908,0.664363 0.03908,0.312642 0.13678,0.625284 0.0977,0.293101 0.273562,0.566663 0.195401,0.273561 0.449422,0.468962 0.254021,0.195401 0.566663,0.293101 0.312642,0.07816 0.644823,0.07816 0.332182,0 0.644824,-0.07816 0.312641,-0.0977 0.566663,-0.293101 0.254021,-0.195401 0.429882,-0.468962 0.195401,-0.273562 0.293101,-0.566663 0.0977,-0.312642 0.136781,-0.625284 0.03908,-0.332181 0.03908,-0.664363 V 14.164106 H 99.0463 V 24.520359 H 97.522172 V 22.74221 q -0.156321,0.410342 -0.410342,0.781604 -0.254021,0.371262 -0.625283,0.644823 -0.351722,0.273562 -0.801144,0.390802 -0.429882,0.117241 -0.859765,0.117241 z"
         id="path1032" />
      <path
         d="M 101.54743,24.520359 V 14.164106 h 1.52413 v 1.778149 q 0.15632,-0.410342 0.41034,-0.781604 0.25402,-0.371262 0.60575,-0.644823 0.37126,-0.273562 0.80114,-0.390802 0.44942,-0.117241 0.8793,-0.117241 0.48851,0 0.95747,0.136781 0.46896,0.136781 0.82068,0.449422 0.37127,0.293102 0.62529,0.722984 0.25402,0.410342 0.3908,0.879304 0.15632,0.449423 0.1954,0.937925 0.0586,0.468963 0.0586,0.937925 v 6.448233 h -1.52413 v -6.448233 q 0,-0.332182 -0.0391,-0.644823 -0.0391,-0.332182 -0.13678,-0.625283 -0.0977,-0.312642 -0.2931,-0.586204 -0.17586,-0.273561 -0.42988,-0.468962 -0.25402,-0.195401 -0.56667,-0.273561 -0.31264,-0.0977 -0.64482,-0.0977 -0.33218,0 -0.64482,0.0977 -0.31264,0.07816 -0.56666,0.273561 -0.25403,0.195401 -0.44943,0.468962 -0.17586,0.273562 -0.27356,0.586204 -0.0977,0.293101 -0.13678,0.625283 -0.0391,0.312641 -0.0391,0.644823 v 6.448233 z"
         id="path1034" />
      <path
         d="m 116.33929,24.67668 q -0.46896,0 -0.93793,-0.117241 -0.46896,-0.11724 -0.85976,-0.390802 -0.37126,-0.273561 -0.64482,-0.664363 -0.25403,-0.410342 -0.41035,-0.840224 -0.15632,-0.449423 -0.21494,-0.918385 -0.0586,-0.468963 -0.0586,-0.937925 v -5.275827 h -2.14941 v -1.367807 h 2.14941 v -4.005721 h 1.52413 v 4.005721 h 3.1655 v 1.367807 h -3.1655 v 5.275827 q 0,0.273561 0.0195,0.566663 0.0195,0.273561 0.0782,0.547123 0.0782,0.254021 0.1954,0.527582 0.11724,0.254022 0.2931,0.449423 0.1954,0.195401 0.46897,0.312641 0.27356,0.0977 0.54712,0.0977 0.37126,0 0.70344,-0.175861 0.35172,-0.175861 0.54713,-0.488503 0.1954,-0.332181 0.27356,-0.703443 0.0782,-0.371262 0.0782,-0.742524 0,-0.01954 -0.0195,-0.05862 0,-0.03908 0,-0.05862 h 1.52412 q 0,0.03908 0,0.0977 0,0.03908 0,0.0977 0,0.429883 -0.0782,0.859765 -0.0782,0.429882 -0.25402,0.840224 -0.17586,0.390802 -0.46896,0.742524 -0.27356,0.332182 -0.64482,0.566663 -0.37126,0.214941 -0.80115,0.293101 -0.42988,0.0977 -0.85976,0.0977 z"
         id="path1036" />
      <path
         d="m 124.76107,24.67668 q -0.54712,0 -1.0747,-0.0977 -0.50805,-0.0977 -0.97701,-0.351721 -0.46896,-0.273562 -0.82068,-0.664364 -0.35172,-0.410342 -0.58621,-0.879304 -0.21494,-0.488503 -0.2931,-1.016086 -0.0782,-0.527582 -0.0782,-1.055165 v -2.540213 q 0,-0.527583 0.0782,-1.055165 0.0782,-0.527583 0.2931,-0.996546 0.21495,-0.488502 0.56667,-0.879304 0.37126,-0.410342 0.82068,-0.664363 0.44942,-0.254022 0.97701,-0.351722 0.52758,-0.117241 1.05516,-0.117241 0.52758,0 1.05517,0.117241 0.52758,0.0977 0.977,0.351722 0.44942,0.254021 0.80115,0.664363 0.37126,0.390802 0.5862,0.879304 0.21494,0.468963 0.2931,0.996546 0.0782,0.527582 0.0782,1.055165 v 1.95401 h -6.05743 v 0.586203 q 0,0.332182 0.0391,0.664363 0.0391,0.332182 0.15632,0.644824 0.13678,0.312641 0.33218,0.586203 0.21494,0.273561 0.48851,0.468962 0.27356,0.175861 0.60574,0.254021 0.33218,0.07816 0.6839,0.07816 0.37126,0 0.74253,-0.07816 0.3908,-0.07816 0.70344,-0.273561 0.33218,-0.214941 0.52758,-0.547123 0.1954,-0.351722 0.21494,-0.722983 h 1.52413 q -0.0195,0.429882 -0.17586,0.859764 -0.13678,0.429882 -0.41034,0.801144 -0.25402,0.351722 -0.62529,0.625283 -0.35172,0.254022 -0.76206,0.429882 -0.41034,0.156321 -0.85976,0.214942 -0.44943,0.05862 -0.87931,0.05862 z m -2.30573,-6.018351 h 4.5333 v -0.586203 q 0,-0.332182 -0.0391,-0.664363 -0.0391,-0.332182 -0.15632,-0.644824 -0.11724,-0.312641 -0.33218,-0.586203 -0.1954,-0.273561 -0.46896,-0.449422 -0.27356,-0.195401 -0.60575,-0.273561 -0.33218,-0.07816 -0.66436,-0.07816 -0.33218,0 -0.66436,0.07816 -0.33218,0.07816 -0.60574,0.273561 -0.27357,0.175861 -0.48851,0.449422 -0.1954,0.273562 -0.31264,0.586203 -0.11724,0.312642 -0.15632,0.644824 -0.0391,0.332181 -0.0391,0.664363 z"
         id="path1038" />
      <path
         d="M 132.02999,24.520359 V 14.164106 h 1.52413 v 2.149411 q 0.11724,-0.429882 0.31264,-0.840224 0.21494,-0.429883 0.52758,-0.762064 0.31264,-0.332182 0.74252,-0.508043 0.44943,-0.195401 0.89885,-0.195401 0.37126,0 0.72298,0.0977 0.37127,0.07816 0.66437,0.293101 0.2931,0.214941 0.4885,0.527583 0.21494,0.293101 0.31264,0.644823 0.11724,0.332182 0.15632,0.703444 0.0391,0.351722 0.0391,0.722984 h -1.52413 q 0,-0.293102 -0.0586,-0.566663 -0.0391,-0.293102 -0.1954,-0.547123 -0.13678,-0.254022 -0.41034,-0.371262 -0.25402,-0.136781 -0.54712,-0.136781 -0.3908,0 -0.76207,0.175861 -0.37126,0.175861 -0.62528,0.488503 -0.23448,0.312641 -0.3908,0.683903 -0.13678,0.351722 -0.21494,0.742524 -0.0782,0.390802 -0.11724,0.781604 -0.0195,0.390802 -0.0195,0.781604 v 5.490768 z"
         id="path1040" />
    </g>
    <ellipse
       style="fill:url(#radialGradient371);fill-opacity:1;stroke:none;stroke-width:3.26437;stroke-dasharray:none;stroke-opacity:1"
       id="ellipse369"
       cx="201.23645"
       cy="50.626499"
       rx="89.752586"
       ry="82.864891" />
    <text
       xml:space="preserve"
       style="font-style:normal;font-variant:normal;font-weight:normal;font-stretch:normal;font-size:16.1731px;font-family:monospace;font-variant-ligatures:normal;font-variant-caps:normal;font-variant-numeric:normal;font-variant-east-asian:normal;text-align:end;text-anchor:end;fill:#c9d1d9;stroke-width:0.289745"
       x="238.81633"
       y="85.943504"
       id="text364"><tspan
         sodipodi:role="line"
         id="tspan362"
         x="238.81633"
         y="85.943504"
         style="text-align:end;text-anchor:end;stroke-width:0.289745">{user} profile</tspan></text>
    <text
       xml:space="preserve"
       id="text698"
       style="font-style:normal;font-variant:normal;font-weight:normal;font-stretch:normal;font-size:48px;line-height:0;font-family:monospace;-inkscape-font-specification:'Iosevka, Normal';font-variant-ligatures:normal;font-variant-caps:normal;font-variant-numeric:normal;font-variant-east-asian:normal;white-space:pre;shape-inside:url(#rect700);shape-padding:4.17147;display:inline;fill:#c9d1d9"
       transform="translate(5.104708,33.075603)"><tspan
         x="4.171875"
         y="17.688675"
         id="tspan1089">
</tspan><tspan
         x="4.171875"
         y="26.261475"
         id="tspan1093"><tspan
           style="font-size:37.3333px"
           id="tspan1091">{count}</tspan></tspan></text>
  </g>
</svg>
